<svg width="66" height="30" viewBox="0 0 66 30" fill="none" xmlns="http://www.w3.org/2000/svg">
<path d="M10.48 5.44L9.2 12.68H18.6L17.84 17H8.44L7.12 24.56H17.72L16.92 29H0.68L5.64 1.04H21.84L21.08 5.44H10.48ZM35.1122 29.28C34.2322 29.28 33.5255 29.0267 32.9922 28.52C32.4589 28.0133 32.1922 27.3733 32.1922 26.6C32.1922 25.5333 32.5922 24.6267 33.3922 23.88C34.2189 23.1067 35.1789 22.72 36.2722 22.72C37.1522 22.72 37.8455 22.9733 38.3522 23.48C38.8855 23.96 39.1522 24.6 39.1522 25.4C39.1522 26.4667 38.7522 27.3867 37.9522 28.16C37.1522 28.9067 36.2055 29.28 35.1122 29.28ZM53.6628 29.28C50.8628 29.28 48.5561 28.6533 46.7428 27.4C44.9561 26.12 44.0628 24.3333 44.0628 22.04C44.0628 21.8 44.0895 21.44 44.1428 20.96H49.8628C49.7561 22.08 50.0495 23 50.7428 23.72C51.4628 24.44 52.5028 24.8 53.8628 24.8C55.2228 24.8 56.2895 24.52 57.0628 23.96C57.8628 23.3733 58.2628 22.5467 58.2628 21.48C58.2628 20.4933 57.8495 19.7067 57.0228 19.12C56.2228 18.5333 54.9561 17.88 53.2228 17.16C51.6228 16.4933 50.3161 15.88 49.3028 15.32C48.3161 14.76 47.4628 13.9867 46.7428 13C46.0495 11.9867 45.7028 10.72 45.7028 9.2C45.7028 7.46667 46.1428 5.96 47.0228 4.68C47.9295 3.4 49.1561 2.41333 50.7028 1.72C52.2761 1.02667 54.0628 0.68 56.0628 0.68C58.0361 0.68 59.7428 1.01333 61.1828 1.68C62.6495 2.32 63.7428 3.24 64.4628 4.44C65.2095 5.64 65.5295 7.04 65.4228 8.64H59.4628L59.5028 8.2C59.5028 7.32 59.1695 6.6 58.5028 6.04C57.8628 5.48 56.9561 5.2 55.7828 5.2C54.5295 5.2 53.5161 5.49333 52.7428 6.08C51.9695 6.66667 51.5828 7.46667 51.5828 8.48C51.5828 9.14667 51.7961 9.73333 52.2228 10.24C52.6761 10.72 53.2228 11.1467 53.8628 11.52C54.5028 11.8667 55.4228 12.32 56.6228 12.88C58.1961 13.5733 59.4895 14.2267 60.5028 14.84C61.5161 15.4533 62.3828 16.2667 63.1028 17.28C63.8228 18.2933 64.1828 19.5333 64.1828 21C64.1828 22.6 63.7428 24.0267 62.8628 25.28C62.0095 26.5333 60.7828 27.52 59.1828 28.24C57.6095 28.9333 55.7695 29.28 53.6628 29.28Z" fill="white"/>
</svg>
